<mxfile host="app.diagrams.net" modified="2023-02-17T08:34:15.277Z" agent="5.0 (Macintosh; Intel Mac OS X 10_15_7) AppleWebKit/537.36 (KHTML, like Gecko) Chrome/107.0.0.0 Safari/537.36" etag="pUevVcBU8NzP5gDwyPNN" version="20.8.20" type="github">
  <diagram name="第 1 页" id="eRGpeCXrugRQUfTVg9dr">
    <mxGraphModel dx="1242" dy="709" grid="1" gridSize="10" guides="1" tooltips="1" connect="1" arrows="1" fold="1" page="1" pageScale="1" pageWidth="826" pageHeight="1169" math="0" shadow="0">
      <root>
        <mxCell id="0" />
        <mxCell id="1" parent="0" />
        <mxCell id="9DkDQZ67DxXMdm3Eownl-1" value="Mindmap" style="swimlane;startSize=20;horizontal=1;containerType=tree;" vertex="1" parent="1">
          <mxGeometry x="130" y="160" width="760" height="410" as="geometry" />
        </mxCell>
        <mxCell id="9DkDQZ67DxXMdm3Eownl-2" value="" style="edgeStyle=entityRelationEdgeStyle;startArrow=none;endArrow=none;segment=10;curved=1;sourcePerimeterSpacing=0;targetPerimeterSpacing=0;rounded=0;" edge="1" parent="9DkDQZ67DxXMdm3Eownl-1" source="9DkDQZ67DxXMdm3Eownl-3" target="9DkDQZ67DxXMdm3Eownl-4">
          <mxGeometry relative="1" as="geometry" />
        </mxCell>
        <mxCell id="9DkDQZ67DxXMdm3Eownl-3" value="个人技能" style="ellipse;whiteSpace=wrap;html=1;align=center;treeFolding=1;treeMoving=1;newEdgeStyle={&quot;edgeStyle&quot;:&quot;entityRelationEdgeStyle&quot;,&quot;startArrow&quot;:&quot;none&quot;,&quot;endArrow&quot;:&quot;none&quot;,&quot;segment&quot;:10,&quot;curved&quot;:1,&quot;sourcePerimeterSpacing&quot;:0,&quot;targetPerimeterSpacing&quot;:0};" vertex="1" parent="9DkDQZ67DxXMdm3Eownl-1">
          <mxGeometry x="20" y="40" width="100" height="40" as="geometry" />
        </mxCell>
        <mxCell id="9DkDQZ67DxXMdm3Eownl-4" value="Topic" style="whiteSpace=wrap;html=1;rounded=1;arcSize=50;align=center;verticalAlign=middle;strokeWidth=1;autosize=1;spacing=4;treeFolding=1;treeMoving=1;newEdgeStyle={&quot;edgeStyle&quot;:&quot;entityRelationEdgeStyle&quot;,&quot;startArrow&quot;:&quot;none&quot;,&quot;endArrow&quot;:&quot;none&quot;,&quot;segment&quot;:10,&quot;curved&quot;:1,&quot;sourcePerimeterSpacing&quot;:0,&quot;targetPerimeterSpacing&quot;:0};" vertex="1" parent="9DkDQZ67DxXMdm3Eownl-1">
          <mxGeometry x="320" y="50" width="80" height="20" as="geometry" />
        </mxCell>
        <mxCell id="9DkDQZ67DxXMdm3Eownl-5" value="" style="edgeStyle=entityRelationEdgeStyle;startArrow=none;endArrow=none;segment=10;curved=1;sourcePerimeterSpacing=0;targetPerimeterSpacing=0;rounded=0;" edge="1" parent="9DkDQZ67DxXMdm3Eownl-1" source="9DkDQZ67DxXMdm3Eownl-4" target="9DkDQZ67DxXMdm3Eownl-6">
          <mxGeometry relative="1" as="geometry">
            <mxPoint x="190" y="140" as="sourcePoint" />
          </mxGeometry>
        </mxCell>
        <mxCell id="9DkDQZ67DxXMdm3Eownl-6" value="Topic" style="whiteSpace=wrap;html=1;rounded=1;arcSize=50;align=center;verticalAlign=middle;strokeWidth=1;autosize=1;spacing=4;treeFolding=1;treeMoving=1;newEdgeStyle={&quot;edgeStyle&quot;:&quot;entityRelationEdgeStyle&quot;,&quot;startArrow&quot;:&quot;none&quot;,&quot;endArrow&quot;:&quot;none&quot;,&quot;segment&quot;:10,&quot;curved&quot;:1,&quot;sourcePerimeterSpacing&quot;:0,&quot;targetPerimeterSpacing&quot;:0};" vertex="1" parent="9DkDQZ67DxXMdm3Eownl-1">
          <mxGeometry x="440" y="50" width="80" height="20" as="geometry" />
        </mxCell>
        <mxCell id="9DkDQZ67DxXMdm3Eownl-7" value="" style="edgeStyle=entityRelationEdgeStyle;startArrow=none;endArrow=none;segment=10;sourcePerimeterSpacing=0;targetPerimeterSpacing=0;rounded=0;" edge="1" parent="9DkDQZ67DxXMdm3Eownl-1" source="9DkDQZ67DxXMdm3Eownl-4" target="9DkDQZ67DxXMdm3Eownl-8">
          <mxGeometry relative="1" as="geometry">
            <mxPoint x="470" y="140" as="sourcePoint" />
          </mxGeometry>
        </mxCell>
        <mxCell id="9DkDQZ67DxXMdm3Eownl-8" value="Topic" style="whiteSpace=wrap;html=1;rounded=1;arcSize=50;align=center;verticalAlign=middle;strokeWidth=1;autosize=1;spacing=4;treeFolding=1;treeMoving=1;newEdgeStyle={&quot;edgeStyle&quot;:&quot;entityRelationEdgeStyle&quot;,&quot;startArrow&quot;:&quot;none&quot;,&quot;endArrow&quot;:&quot;none&quot;,&quot;segment&quot;:10,&quot;curved&quot;:1,&quot;sourcePerimeterSpacing&quot;:0,&quot;targetPerimeterSpacing&quot;:0};" vertex="1" parent="9DkDQZ67DxXMdm3Eownl-1">
          <mxGeometry x="426" y="100" width="80" height="20" as="geometry" />
        </mxCell>
        <mxCell id="9DkDQZ67DxXMdm3Eownl-9" value="" style="edgeStyle=entityRelationEdgeStyle;startArrow=none;endArrow=none;segment=10;curved=1;sourcePerimeterSpacing=0;targetPerimeterSpacing=0;rounded=0;" edge="1" parent="9DkDQZ67DxXMdm3Eownl-1" source="9DkDQZ67DxXMdm3Eownl-3" target="9DkDQZ67DxXMdm3Eownl-10">
          <mxGeometry relative="1" as="geometry">
            <mxPoint x="154" y="150" as="sourcePoint" />
          </mxGeometry>
        </mxCell>
        <mxCell id="9DkDQZ67DxXMdm3Eownl-10" value="Topic" style="whiteSpace=wrap;html=1;rounded=1;arcSize=50;align=center;verticalAlign=middle;strokeWidth=1;autosize=1;spacing=4;treeFolding=1;treeMoving=1;newEdgeStyle={&quot;edgeStyle&quot;:&quot;entityRelationEdgeStyle&quot;,&quot;startArrow&quot;:&quot;none&quot;,&quot;endArrow&quot;:&quot;none&quot;,&quot;segment&quot;:10,&quot;curved&quot;:1,&quot;sourcePerimeterSpacing&quot;:0,&quot;targetPerimeterSpacing&quot;:0};" vertex="1" parent="9DkDQZ67DxXMdm3Eownl-1">
          <mxGeometry x="30" y="120" width="80" height="20" as="geometry" />
        </mxCell>
      </root>
    </mxGraphModel>
  </diagram>
</mxfile>
